<svg width="27" height="32" viewBox="0 0 27 32" fill="none" xmlns="http://www.w3.org/2000/svg">
<path d="M14.1745 0.359629C15.8542 0.333984 17.5211 0.346807 19.188 0.333984C19.2906 2.29581 19.9958 4.2961 21.4319 5.68092C22.868 7.1042 24.894 7.75814 26.8686 7.97612V13.1435C25.0222 13.0794 23.163 12.6948 21.4832 11.8998C20.7523 11.5664 20.0728 11.1432 19.406 10.7073C19.3932 14.4514 19.4188 18.1956 19.3804 21.9269C19.2778 23.722 18.6879 25.5043 17.6493 26.9789C15.9696 29.4408 13.0589 31.0436 10.0713 31.0949C8.23771 31.1974 6.40411 30.6974 4.83978 29.7742C2.24966 28.2483 0.428883 25.453 0.159613 22.4526C0.133969 21.8115 0.121146 21.1703 0.146791 20.542C0.377594 18.1058 1.5829 15.7721 3.45496 14.1822C5.58348 12.3357 8.55827 11.451 11.3407 11.9767C11.3664 13.8744 11.2894 15.7721 11.2894 17.6698C10.02 17.2595 8.53263 17.3749 7.41708 18.1443C6.60927 18.67 5.99379 19.4778 5.67323 20.3882C5.40396 21.0421 5.4809 21.7602 5.49372 22.4526C5.80146 24.5555 7.82739 26.3249 9.98155 26.1326C11.4177 26.1198 12.7897 25.2863 13.5333 24.0682C13.777 23.6451 14.0462 23.2091 14.0591 22.709C14.1873 20.4138 14.136 18.1314 14.1488 15.8362C14.1616 10.6688 14.136 5.51422 14.1745 0.359629Z" fill="white"/>
</svg>
