<svg width="38" height="23" viewBox="0 0 38 23" fill="none" xmlns="http://www.w3.org/2000/svg">
<path fill-rule="evenodd" clip-rule="evenodd" d="M36.4901 2.21935C36.6944 1.40204 36.4901 0.789062 35.2641 0.789062H31.1776C30.3603 0.789062 29.7473 1.19772 29.3386 2.01503C28.1127 4.8756 26.4781 7.73618 24.4348 10.1881C23.4132 11.2097 23.0045 11.4141 22.5959 11.4141C22.3915 11.4141 21.9829 11.2097 21.9829 10.1881V2.21935C21.9829 1.19772 21.7786 0.789062 20.7569 0.789062H14.4228C13.8098 0.789062 13.4012 1.19772 13.4012 1.60637C13.4012 2.62801 14.8314 2.83233 15.0358 5.48858V11.4141C15.0358 12.64 14.8314 13.0487 14.2185 13.0487C12.7882 13.0487 9.51893 8.14484 7.67999 2.42368C7.27133 1.40204 6.86268 0.789062 5.84104 0.789062H1.7545C0.528539 0.789062 0.324219 1.40204 0.324219 2.01503C0.324219 3.03666 1.7545 8.34916 6.65835 15.2963C9.3146 19.5871 13.8098 22.2434 18.918 22.6521C21.3699 22.6521 21.7786 22.0391 21.7786 21.0174V17.3396C21.7786 16.1136 21.9829 15.9093 22.8002 15.9093C23.4132 15.9093 24.4348 16.1136 26.8867 18.5655C29.543 21.2218 30.156 22.4477 31.5863 22.4477H35.6728C36.8988 22.4477 37.3074 21.8347 37.1031 20.8131C36.2858 18.9742 35.0598 17.5439 33.6295 16.1136C32.6079 15.092 31.3819 13.866 30.7689 13.253C30.156 12.4357 30.3603 12.2314 30.7689 11.4141C31.1776 11.4141 36.0814 4.46695 36.4901 2.21935Z" fill="white"/>
</svg>
